<svg height="128" width="128" xmlns="http://www.w3.org/2000/svg"><linearGradient id="c" gradientUnits="userSpaceOnUse" x1="72" x2="120" y1="120" y2="120"><stop offset="0" stop-color="#26a269"/><stop offset=".083" stop-color="#33d17a"/><stop offset=".167" stop-color="#26a269"/><stop offset="1" stop-color="#26a269"/></linearGradient><linearGradient id="b" gradientUnits="userSpaceOnUse" x1="8" x2="56" y1="100" y2="100"><stop offset="0" stop-color="#e5a50a"/><stop offset=".083" stop-color="#f6d32d"/><stop offset=".167" stop-color="#e5a50a"/><stop offset="1" stop-color="#e5a50a"/></linearGradient><linearGradient id="a" gradientUnits="userSpaceOnUse" x1="40" x2="88" y1="36" y2="36"><stop offset="0" stop-color="#a51d2d"/><stop offset=".083" stop-color="#ed333b"/><stop offset=".167" stop-color="#a51d2d"/><stop offset="1" stop-color="#a51d2d"/></linearGradient><g stroke-width="4"><rect fill="url(#a)" height="40" ry="4" width="48" x="40" y="16"/><path d="M40 76l12-20v-4L32 76zM88 76L76 56v-4l20 24z" fill="#9a9996"/><rect fill="url(#b)" height="36" ry="4" width="48" x="8" y="80"/><rect fill="url(#c)" height="36" ry="4" width="48" x="72" y="80"/><rect fill="#ed333b" height="36" ry="4" width="48" x="40" y="12"/><rect fill="#f6d32d" height="36" ry="4" width="48" x="8" y="72"/><path d="M40 72l12-20h-8L32 72zM88 72L76 52h8l12 20z" fill="#c0bfbc"/><rect fill="#33d17a" height="36" ry="4" width="48" x="72" y="72"/><path d="M76 80h40v4H76zm0 8h40v4H76zm0 8h40v4H76z" fill="#26a269"/><path d="M12 80h40v4H12zm0 8h40v4H12zm0 8h40v4H12z" fill="#e5a50a"/><path d="M44 20h40v4H44zm0 8h40v4H44zm0 8h40v4H44z" fill="#a51d2d"/></g></svg>