<svg viewBox="0 0 128 128" xmlns="http://www.w3.org/2000/svg" xmlns:xlink="http://www.w3.org/1999/xlink"><linearGradient id="a"><stop offset="0" stop-color="#57e389"/><stop offset="1" stop-color="#57e389" stop-opacity="0"/></linearGradient><linearGradient id="d" gradientUnits="userSpaceOnUse" x1="32" x2="32" xlink:href="#a" y1="36" y2="40"/><linearGradient id="j" gradientUnits="userSpaceOnUse" x1="92" x2="92" xlink:href="#a" y1="32" y2="36"/><linearGradient id="i" gradientUnits="userSpaceOnUse" x1="64" x2="64" xlink:href="#a" y1="44" y2="52"/><linearGradient id="g" gradientUnits="userSpaceOnUse" x1="48" x2="48" xlink:href="#a" y1="52" y2="56"/><linearGradient id="e" gradientUnits="userSpaceOnUse" x1="32" x2="32" xlink:href="#a" y1="90" y2="96"/><linearGradient id="h" gradientUnits="userSpaceOnUse" x1="60" x2="60" xlink:href="#a" y1="82" y2="88"/><linearGradient id="f" gradientUnits="userSpaceOnUse" x1="68" x2="68" xlink:href="#a" y1="110" y2="116"/><linearGradient id="c" gradientUnits="userSpaceOnUse" x1="88" x2="88" xlink:href="#a" y1="88" y2="92"/><linearGradient id="b" gradientUnits="userSpaceOnUse" x1="20" x2="20" y1="8" y2="120"><stop offset="0" stop-color="#2ec27e"/><stop offset="1" stop-color="#2ec27e" stop-opacity="0"/></linearGradient><path d="M16 8h96v112H16z" fill="#26a269"/><path d="M20 8h88v112H20z" fill="url(#b)"/><path d="M88 72h4v20h-4z" fill="url(#c)"/><path d="M32 20h4v20h-4z" fill="url(#d)"/><path d="M38 76c-3.324 0-6 2.676-6 6v8c0 3.324 2.676 6 6 6s6-2.676 6-6v-8c0-3.324-2.676-6-6-6zm0 4c1.108 0 2 .892 2 2v8c0 1.108-.892 2-2 2s-2-.892-2-2v-8c0-1.108.892-2 2-2z" fill="url(#e)"/><path d="M74 96c-3.324 0-6 2.676-6 6v8c0 3.324 2.676 6 6 6s6-2.676 6-6v-8c0-3.324-2.676-6-6-6zm0 4c1.108 0 2 .892 2 2v8c0 1.108-.892 2-2 2s-2-.892-2-2v-8c0-1.108.892-2 2-2z" fill="url(#f)"/><path d="M48 36h4v20h-4z" fill="url(#g)"/><path d="M66 68c-3.324 0-6 2.676-6 6v8c0 3.324 2.676 6 6 6s6-2.676 6-6v-8c0-3.324-2.676-6-6-6zm0 4c1.108 0 2 .892 2 2v8c0 1.108-.892 2-2 2s-2-.892-2-2v-8c0-1.108.892-2 2-2z" fill="url(#h)"/><path d="M70 32c-3.324 0-6 2.676-6 6v8c0 3.324 2.676 6 6 6s6-2.676 6-6v-8c0-3.324-2.676-6-6-6zm0 4c1.108 0 2 .892 2 2v8c0 1.108-.892 2-2 2s-2-.892-2-2v-8c0-1.108.892-2 2-2z" fill="url(#i)"/><path d="M92 16h4v20h-4z" fill="url(#j)"/><path d="M92 12h4v20h-4zM48 32h4v20h-4zm18 32c-3.324 0-6 2.676-6 6v8c0 3.324 2.676 6 6 6s6-2.676 6-6v-8c0-3.324-2.676-6-6-6zm0 4c1.108 0 2 .892 2 2v8c0 1.108-.892 2-2 2s-2-.892-2-2v-8c0-1.108.892-2 2-2zm4-40c-3.324 0-6 2.676-6 6v8c0 3.324 2.676 6 6 6s6-2.676 6-6v-8c0-3.324-2.676-6-6-6zm0 4c1.108 0 2 .892 2 2v8c0 1.108-.892 2-2 2s-2-.892-2-2v-8c0-1.108.892-2 2-2zm18 36h4v20h-4zM32 16h4v20h-4zm6 56c-3.324 0-6 2.676-6 6v8c0 3.324 2.676 6 6 6s6-2.676 6-6v-8c0-3.324-2.676-6-6-6zm0 4c1.108 0 2 .892 2 2v8c0 1.108-.892 2-2 2s-2-.892-2-2v-8c0-1.108.892-2 2-2zm36 16c-3.324 0-6 2.676-6 6v8c0 3.324 2.676 6 6 6s6-2.676 6-6v-8c0-3.324-2.676-6-6-6zm0 4c1.108 0 2 .892 2 2v8c0 1.108-.892 2-2 2s-2-.892-2-2v-8c0-1.108.892-2 2-2z" fill="#8ff0a4"/></svg>